<svg xmlns="http://www.w3.org/2000/svg" viewBox="0 0 24 24" role="img" aria-hidden="true">
  <rect x="2" y="4.2" width="20" height="15.6" rx="2.3" fill="#FFFFFF"/>
  <path d="M2.2 6.1l9.8 7.2 9.8-7.2v11.7c0 1.1-.9 2-2 2h-3.8V9.4L12 12.4 8 9.4v10.4H4.2c-1.1 0-2-.9-2-2z" fill="#EA4335"/>
  <path d="M2.2 6.1c0-.4.2-.8.5-1.2L12 12.4 8 9.4V19.8H4.2c-1.1 0-2-.9-2-2z" fill="#C5221F"/>
  <path d="M21.8 6.1c0-.4-.2-.8-.5-1.2L12 12.4l4-3v10.4h3.8c1.1 0 2-.9 2-2z" fill="#FBBC04"/>
  <path d="M2.7 4.9c.4-.5.9-.7 1.5-.7h.7L12 9.8l7.1-5.6h.7c.6 0 1.1.3 1.5.7L12 13.4z" fill="#4285F4"/>
  <path d="M2.7 4.9c.4-.5.9-.7 1.5-.7h.7L12 9.8 8 12.8 2.2 6.1c0-.4.2-.8.5-1.2z" fill="#34A853"/>
</svg>
