<svg xmlns="http://www.w3.org/2000/svg" viewBox="0 0 24 24" role="img" aria-hidden="true">
  <path fill="#EA4335" d="M12.24 10.29v3.92h5.47c-.24 1.26-.96 2.33-2.04 3.05l3.29 2.55c1.92-1.77 3.02-4.37 3.02-7.45 0-.73-.07-1.43-.2-2.11z"/>
  <path fill="#4285F4" d="M12 22c2.7 0 4.97-.9 6.62-2.44l-3.29-2.55c-.92.62-2.1.99-3.33.99-2.56 0-4.72-1.73-5.49-4.05H3.1v2.64A10 10 0 0 0 12 22z"/>
  <path fill="#FBBC05" d="M6.51 13.95A6 6 0 0 1 6.2 12c0-.68.12-1.33.31-1.95V7.41H3.1A10 10 0 0 0 2 12c0 1.61.39 3.14 1.1 4.59z"/>
  <path fill="#34A853" d="M12 6a5.43 5.43 0 0 1 3.84 1.5l2.88-2.88A9.63 9.63 0 0 0 12 2 10 10 0 0 0 3.1 7.41l3.41 2.64C7.28 7.73 9.44 6 12 6z"/>
</svg>
