<svg xmlns="http://www.w3.org/2000/svg" viewBox="0 0 24 24" role="img" aria-hidden="true">
  <path d="M14.2 4h6.4A1.4 1.4 0 0 1 22 5.4v13.2a1.4 1.4 0 0 1-1.4 1.4h-6.4a1.4 1.4 0 0 1-1.4-1.4V5.4A1.4 1.4 0 0 1 14.2 4z" fill="#0078D4"/>
  <path d="M13 6.1L21.2 9.7v-.1a1.3 1.3 0 0 0-.8-1.2l-6.3-2.9A1.3 1.3 0 0 0 13 6.1z" fill="#50A9F8"/>
  <path d="M13 17.9l8.2-3.7v.1a1.3 1.3 0 0 1-.8 1.2l-6.3 2.9a1.3 1.3 0 0 1-1.1-.5z" fill="#0078D4"/>
  <rect x="2" y="6.2" width="12.8" height="11.6" rx="1.2" fill="#0A62C7"/>
  <path d="M3 7.2l5.4 4.2L13.8 7.2v9.6H3z" fill="#CDE6FF"/>
  <circle cx="8.1" cy="12" r="2.5" fill="#FFFFFF"/>
  <circle cx="8.1" cy="12" r="1.2" fill="#0A62C7"/>
</svg>
